<mxfile host="app.diagrams.net" modified="2021-02-14T12:08:47.081Z" agent="5.0 (Windows)" etag="ep-xDV7NGlrLQOxk-TH1" version="14.3.1" type="github">
  <diagram id="5E9UThSoqMJA3yYfl3ob" name="Page-1">
    <mxGraphModel dx="1888" dy="1673" grid="1" gridSize="10" guides="1" tooltips="1" connect="1" arrows="1" fold="1" page="1" pageScale="1" pageWidth="850" pageHeight="1100" math="0" shadow="0">
      <root>
        <mxCell id="0" />
        <mxCell id="1" parent="0" />
        <mxCell id="N0ISdphDzk23KEhAGcAI-48" value="" style="rounded=0;whiteSpace=wrap;html=1;fillColor=#FFFFFF;" vertex="1" parent="1">
          <mxGeometry x="520" y="160" width="80" height="80" as="geometry" />
        </mxCell>
        <mxCell id="N0ISdphDzk23KEhAGcAI-46" value="" style="rounded=0;whiteSpace=wrap;html=1;fillColor=#FFFFFF;" vertex="1" parent="1">
          <mxGeometry x="240" y="160" width="80" height="80" as="geometry" />
        </mxCell>
        <mxCell id="N0ISdphDzk23KEhAGcAI-44" value="" style="rounded=0;whiteSpace=wrap;html=1;" vertex="1" parent="1">
          <mxGeometry x="460" y="320" width="370" height="130" as="geometry" />
        </mxCell>
        <mxCell id="N0ISdphDzk23KEhAGcAI-45" value="" style="rounded=0;whiteSpace=wrap;html=1;" vertex="1" parent="1">
          <mxGeometry x="130" y="320" width="220" height="130" as="geometry" />
        </mxCell>
        <mxCell id="N0ISdphDzk23KEhAGcAI-18" style="edgeStyle=orthogonalEdgeStyle;rounded=0;orthogonalLoop=1;jettySize=auto;html=1;exitX=0.5;exitY=1;exitDx=0;exitDy=0;entryX=0.5;entryY=0;entryDx=0;entryDy=0;entryPerimeter=0;" edge="1" parent="1" source="N0ISdphDzk23KEhAGcAI-1" target="N0ISdphDzk23KEhAGcAI-16">
          <mxGeometry relative="1" as="geometry" />
        </mxCell>
        <mxCell id="N0ISdphDzk23KEhAGcAI-20" style="edgeStyle=orthogonalEdgeStyle;rounded=0;orthogonalLoop=1;jettySize=auto;html=1;exitX=0.25;exitY=1;exitDx=0;exitDy=0;" edge="1" parent="1" source="N0ISdphDzk23KEhAGcAI-1" target="N0ISdphDzk23KEhAGcAI-19">
          <mxGeometry relative="1" as="geometry" />
        </mxCell>
        <mxCell id="N0ISdphDzk23KEhAGcAI-1" value="" style="image;html=1;image=img/lib/clip_art/networking/Wireless_Router_128x128.png" vertex="1" parent="1">
          <mxGeometry x="240" y="160" width="80" height="80" as="geometry" />
        </mxCell>
        <mxCell id="N0ISdphDzk23KEhAGcAI-13" style="edgeStyle=orthogonalEdgeStyle;rounded=0;orthogonalLoop=1;jettySize=auto;html=1;exitX=0.25;exitY=1;exitDx=0;exitDy=0;" edge="1" parent="1" source="N0ISdphDzk23KEhAGcAI-2" target="N0ISdphDzk23KEhAGcAI-10">
          <mxGeometry relative="1" as="geometry" />
        </mxCell>
        <mxCell id="N0ISdphDzk23KEhAGcAI-14" style="edgeStyle=orthogonalEdgeStyle;rounded=0;orthogonalLoop=1;jettySize=auto;html=1;exitX=0.5;exitY=1;exitDx=0;exitDy=0;" edge="1" parent="1" source="N0ISdphDzk23KEhAGcAI-2" target="N0ISdphDzk23KEhAGcAI-11">
          <mxGeometry relative="1" as="geometry" />
        </mxCell>
        <mxCell id="N0ISdphDzk23KEhAGcAI-27" style="edgeStyle=orthogonalEdgeStyle;rounded=0;orthogonalLoop=1;jettySize=auto;html=1;exitX=0.75;exitY=1;exitDx=0;exitDy=0;entryX=0.529;entryY=-0.032;entryDx=0;entryDy=0;entryPerimeter=0;" edge="1" parent="1" source="N0ISdphDzk23KEhAGcAI-2" target="N0ISdphDzk23KEhAGcAI-26">
          <mxGeometry relative="1" as="geometry" />
        </mxCell>
        <mxCell id="N0ISdphDzk23KEhAGcAI-28" style="edgeStyle=orthogonalEdgeStyle;rounded=0;orthogonalLoop=1;jettySize=auto;html=1;exitX=1;exitY=0.75;exitDx=0;exitDy=0;" edge="1" parent="1" source="N0ISdphDzk23KEhAGcAI-2" target="N0ISdphDzk23KEhAGcAI-25">
          <mxGeometry relative="1" as="geometry" />
        </mxCell>
        <mxCell id="N0ISdphDzk23KEhAGcAI-2" value="" style="image;html=1;image=img/lib/clip_art/networking/Wireless_Router_128x128.png" vertex="1" parent="1">
          <mxGeometry x="520" y="160" width="80" height="80" as="geometry" />
        </mxCell>
        <mxCell id="N0ISdphDzk23KEhAGcAI-7" style="edgeStyle=orthogonalEdgeStyle;rounded=0;orthogonalLoop=1;jettySize=auto;html=1;" edge="1" parent="1" target="N0ISdphDzk23KEhAGcAI-1">
          <mxGeometry relative="1" as="geometry">
            <mxPoint x="300" y="50" as="sourcePoint" />
            <Array as="points">
              <mxPoint x="280" y="60" />
            </Array>
          </mxGeometry>
        </mxCell>
        <mxCell id="N0ISdphDzk23KEhAGcAI-8" style="edgeStyle=orthogonalEdgeStyle;rounded=0;orthogonalLoop=1;jettySize=auto;html=1;" edge="1" parent="1" target="N0ISdphDzk23KEhAGcAI-2">
          <mxGeometry relative="1" as="geometry">
            <mxPoint x="300" y="50" as="sourcePoint" />
          </mxGeometry>
        </mxCell>
        <mxCell id="N0ISdphDzk23KEhAGcAI-40" value="LAN" style="edgeLabel;html=1;align=center;verticalAlign=middle;resizable=0;points=[];" vertex="1" connectable="0" parent="N0ISdphDzk23KEhAGcAI-8">
          <mxGeometry x="-0.4086" y="-2" relative="1" as="geometry">
            <mxPoint as="offset" />
          </mxGeometry>
        </mxCell>
        <mxCell id="N0ISdphDzk23KEhAGcAI-23" style="edgeStyle=orthogonalEdgeStyle;rounded=0;orthogonalLoop=1;jettySize=auto;html=1;exitX=1;exitY=0.7;exitDx=0;exitDy=0;exitPerimeter=0;entryX=0;entryY=0.5;entryDx=0;entryDy=0;entryPerimeter=0;" edge="1" parent="1" source="N0ISdphDzk23KEhAGcAI-3" target="N0ISdphDzk23KEhAGcAI-21">
          <mxGeometry relative="1" as="geometry" />
        </mxCell>
        <mxCell id="N0ISdphDzk23KEhAGcAI-3" value="" style="outlineConnect=0;dashed=0;verticalLabelPosition=bottom;verticalAlign=top;align=center;html=1;shape=mxgraph.aws3.internet_3;fillColor=#D2D3D3;gradientColor=none;" vertex="1" parent="1">
          <mxGeometry y="23" width="79.5" height="54" as="geometry" />
        </mxCell>
        <mxCell id="N0ISdphDzk23KEhAGcAI-9" value="" style="points=[];aspect=fixed;html=1;align=center;shadow=0;dashed=0;image;image=img/lib/allied_telesis/computer_and_terminals/Personal_Computer_with_Server.svg;" vertex="1" parent="1">
          <mxGeometry x="480" y="350" width="62.400000000000006" height="62.400000000000006" as="geometry" />
        </mxCell>
        <mxCell id="N0ISdphDzk23KEhAGcAI-10" value="" style="points=[];aspect=fixed;html=1;align=center;shadow=0;dashed=0;image;image=img/lib/allied_telesis/computer_and_terminals/Personal_Computer_with_Server.svg;" vertex="1" parent="1">
          <mxGeometry x="480" y="350" width="62.400000000000006" height="62.400000000000006" as="geometry" />
        </mxCell>
        <mxCell id="N0ISdphDzk23KEhAGcAI-11" value="" style="points=[];aspect=fixed;html=1;align=center;shadow=0;dashed=0;image;image=img/lib/allied_telesis/computer_and_terminals/Personal_Computer_with_Server.svg;" vertex="1" parent="1">
          <mxGeometry x="580" y="350" width="62.400000000000006" height="62.400000000000006" as="geometry" />
        </mxCell>
        <mxCell id="N0ISdphDzk23KEhAGcAI-16" value="" style="fontColor=#0066CC;verticalAlign=top;verticalLabelPosition=bottom;labelPosition=center;align=center;html=1;outlineConnect=0;fillColor=#CCCCCC;strokeColor=#6881B3;gradientColor=none;gradientDirection=north;strokeWidth=2;shape=mxgraph.networks.desktop_pc;" vertex="1" parent="1">
          <mxGeometry x="265" y="340" width="30" height="60" as="geometry" />
        </mxCell>
        <mxCell id="N0ISdphDzk23KEhAGcAI-19" value="" style="points=[];aspect=fixed;html=1;align=center;shadow=0;dashed=0;image;image=img/lib/allied_telesis/computer_and_terminals/Personal_Computer_with_Server.svg;" vertex="1" parent="1">
          <mxGeometry x="160" y="337.6" width="62.400000000000006" height="62.400000000000006" as="geometry" />
        </mxCell>
        <mxCell id="N0ISdphDzk23KEhAGcAI-22" style="edgeStyle=orthogonalEdgeStyle;rounded=0;orthogonalLoop=1;jettySize=auto;html=1;exitX=1;exitY=0.5;exitDx=0;exitDy=0;exitPerimeter=0;" edge="1" parent="1" source="N0ISdphDzk23KEhAGcAI-21">
          <mxGeometry relative="1" as="geometry">
            <mxPoint x="310" y="50" as="targetPoint" />
          </mxGeometry>
        </mxCell>
        <mxCell id="N0ISdphDzk23KEhAGcAI-21" value="" style="fontColor=#0066CC;verticalAlign=top;verticalLabelPosition=bottom;labelPosition=center;align=center;html=1;outlineConnect=0;fillColor=#CCCCCC;strokeColor=#6881B3;gradientColor=none;gradientDirection=north;strokeWidth=2;shape=mxgraph.networks.firewall;" vertex="1" parent="1">
          <mxGeometry x="145" width="100" height="100" as="geometry" />
        </mxCell>
        <mxCell id="N0ISdphDzk23KEhAGcAI-24" value="" style="html=1;outlineConnect=0;fillColor=#CCCCCC;strokeColor=#6881B3;gradientColor=none;gradientDirection=north;strokeWidth=2;shape=mxgraph.networks.comm_link_edge;html=1;" edge="1" parent="1">
          <mxGeometry width="100" height="100" relative="1" as="geometry">
            <mxPoint x="80" y="80" as="sourcePoint" />
            <mxPoint x="130" y="30" as="targetPoint" />
            <Array as="points">
              <mxPoint x="-180" y="-120" />
            </Array>
          </mxGeometry>
        </mxCell>
        <mxCell id="N0ISdphDzk23KEhAGcAI-25" value="" style="points=[];aspect=fixed;html=1;align=center;shadow=0;dashed=0;image;image=img/lib/allied_telesis/computer_and_terminals/Personal_Computer_with_Server.svg;" vertex="1" parent="1">
          <mxGeometry x="760" y="350" width="62.400000000000006" height="62.400000000000006" as="geometry" />
        </mxCell>
        <mxCell id="N0ISdphDzk23KEhAGcAI-26" value="" style="points=[];aspect=fixed;html=1;align=center;shadow=0;dashed=0;image;image=img/lib/allied_telesis/computer_and_terminals/Personal_Computer_with_Server.svg;" vertex="1" parent="1">
          <mxGeometry x="670" y="350" width="62.400000000000006" height="62.400000000000006" as="geometry" />
        </mxCell>
        <mxCell id="N0ISdphDzk23KEhAGcAI-29" value="Node 1" style="text;html=1;align=center;verticalAlign=middle;resizable=0;points=[];autosize=1;" vertex="1" parent="1">
          <mxGeometry x="485" y="430" width="50" height="20" as="geometry" />
        </mxCell>
        <mxCell id="N0ISdphDzk23KEhAGcAI-30" value="Node 2" style="text;html=1;align=center;verticalAlign=middle;resizable=0;points=[];autosize=1;" vertex="1" parent="1">
          <mxGeometry x="585" y="430" width="50" height="20" as="geometry" />
        </mxCell>
        <mxCell id="N0ISdphDzk23KEhAGcAI-31" value="User1" style="text;html=1;align=center;verticalAlign=middle;resizable=0;points=[];autosize=1;" vertex="1" parent="1">
          <mxGeometry x="675" y="430" width="50" height="20" as="geometry" />
        </mxCell>
        <mxCell id="N0ISdphDzk23KEhAGcAI-32" value="User2" style="text;html=1;align=center;verticalAlign=middle;resizable=0;points=[];autosize=1;" vertex="1" parent="1">
          <mxGeometry x="765" y="430" width="50" height="20" as="geometry" />
        </mxCell>
        <mxCell id="N0ISdphDzk23KEhAGcAI-33" value="Devstation" style="text;html=1;align=center;verticalAlign=middle;resizable=0;points=[];autosize=1;" vertex="1" parent="1">
          <mxGeometry x="245" y="420" width="70" height="20" as="geometry" />
        </mxCell>
        <mxCell id="N0ISdphDzk23KEhAGcAI-34" value="Node3" style="text;html=1;align=center;verticalAlign=middle;resizable=0;points=[];autosize=1;" vertex="1" parent="1">
          <mxGeometry x="166.2" y="420" width="50" height="20" as="geometry" />
        </mxCell>
        <mxCell id="N0ISdphDzk23KEhAGcAI-35" value="172.20.41.250" style="text;html=1;align=center;verticalAlign=middle;resizable=0;points=[];autosize=1;" vertex="1" parent="1">
          <mxGeometry x="595" y="170" width="90" height="20" as="geometry" />
        </mxCell>
        <mxCell id="N0ISdphDzk23KEhAGcAI-36" value="172.20.41.246" style="text;html=1;align=center;verticalAlign=middle;resizable=0;points=[];autosize=1;" vertex="1" parent="1">
          <mxGeometry x="145" y="170" width="90" height="20" as="geometry" />
        </mxCell>
        <mxCell id="N0ISdphDzk23KEhAGcAI-42" style="edgeStyle=orthogonalEdgeStyle;rounded=0;orthogonalLoop=1;jettySize=auto;html=1;" edge="1" parent="1" source="N0ISdphDzk23KEhAGcAI-41">
          <mxGeometry relative="1" as="geometry">
            <mxPoint x="510" y="460" as="targetPoint" />
          </mxGeometry>
        </mxCell>
        <mxCell id="N0ISdphDzk23KEhAGcAI-43" style="edgeStyle=orthogonalEdgeStyle;rounded=0;orthogonalLoop=1;jettySize=auto;html=1;" edge="1" parent="1" source="N0ISdphDzk23KEhAGcAI-41">
          <mxGeometry relative="1" as="geometry">
            <mxPoint x="800" y="460" as="targetPoint" />
          </mxGeometry>
        </mxCell>
        <mxCell id="N0ISdphDzk23KEhAGcAI-41" value="192.168.X.X" style="text;html=1;align=center;verticalAlign=middle;resizable=0;points=[];autosize=1;" vertex="1" parent="1">
          <mxGeometry x="620" y="470" width="80" height="20" as="geometry" />
        </mxCell>
      </root>
    </mxGraphModel>
  </diagram>
</mxfile>
